<svg xmlns="http://www.w3.org/2000/svg" viewBox="0 0 833.75 84.5"><title>Artboard 1</title><rect width="84.5" height="84.5" fill="#663"/><path d="M12.9,8.12,24,8.25c.87,0,3.32-.48,3.88,0A1.51,1.51,0,0,1,27.8,10c-4.58.07-3.61,3.78-3.61,8.16,0,1.49-.3,3.89.28,4.9,1.72.47,4.39.21,6.46.21,2.53,0,5.6.3,7.89-.14.6-.52.4-2,.4-3.06,0-2.43.45-7.61-.54-9-1.1-1.59-4.35.29-3.6-2.78l15.37.06a2.14,2.14,0,0,1-.14,1.7c-1.11,0-2.64.27-3.13,1-1,1.4-.61,4.81-.61,7.07V32.46c0,2.17-.34,5.14.41,6.74.6,1.28,2.38.89,3.67,1.49a2.14,2.14,0,0,1-.14,1.7H35.42l-.07-.2a1.46,1.46,0,0,1,.13-1.63c5.05-.08,3.74-4.51,3.74-9.32,0-1.23.43-4.55-.34-5.1-1.12-.63-9.11-.2-11.15-.2-1.11,0-3-.27-3.4.47s-.14,2.3-.14,3.27c0,2.56-.49,8.35.55,9.86.73,1.06,2.63.6,3.87,1.15a2.14,2.14,0,0,1-.13,1.7H12.9l-.06-.2A1.54,1.54,0,0,1,13,40.56c1.3,0,2.91-.24,3.4-1.09.88-1.5.48-4.82.48-7V17.77c0-2.08.35-5.08-.41-6.59-.65-1.29-2.45-.73-3.67-1.43A2.42,2.42,0,0,1,12.9,8.12Z" fill="#fff" fill-rule="evenodd"/><path d="M60.92,17.57c3.59-.05,5.94.89,8.77,1.22.25,1.45,1.58,6.13.68,7.69a2.08,2.08,0,0,1-1.83-.14,8.43,8.43,0,0,0-5.38-6.25c-3.43-1-7.32,1.75-6.59,5.3.79,3.88,4.63,5,7.61,6.73,3.42,2,6.37,4,7.42,8.37a11.1,11.1,0,0,1-.34,5.92c-2.05,5.2-9,8.05-16.46,6.39-1.64-.36-3.46-.61-4.63-1.5-1.75-1.33-1-5.77-1.7-8.36l.48-.41a1.74,1.74,0,0,1,1.43.07c1.44,3.36,3.17,6.48,6.6,7.82,3.92,1.54,8.61-1,7.88-5.37-1.19-7.22-10-7.49-13.33-12.72-2.59-4.08-1.34-9.71,1.84-12.18a13.26,13.26,0,0,1,5-2.24Z" fill="#fff" fill-rule="evenodd"/><path d="M41.67,40.76c3.6,0,5.95.89,8.78,1.23.24,1.44,1.58,6.13.68,7.68a2.14,2.14,0,0,1-1.84-.13,8.43,8.43,0,0,0-5.37-6.26c-3.44-1-7.32,1.76-6.6,5.3.79,3.88,4.64,5,7.62,6.74,3.42,2,6.37,4,7.41,8.36A11.1,11.1,0,0,1,52,69.6c-2,5.2-8.94,8.05-16.46,6.39-1.64-.36-3.46-.61-4.62-1.49-1.75-1.34-1-5.78-1.7-8.37l.47-.41a1.73,1.73,0,0,1,1.43.07c1.44,3.36,3.18,6.48,6.6,7.82,3.92,1.54,8.61-1,7.89-5.37-1.2-7.22-10-7.48-13.33-12.72-2.59-4.08-1.35-9.71,1.83-12.17a13.19,13.19,0,0,1,5-2.25Z" fill="#fff" fill-rule="evenodd"/><text transform="translate(84.75 58.96)" font-size="69" fill="#663" font-family="AGaramondPro-Bold, Adobe Garamond Pro" font-weight="700"> <tspan x="16.56" y="0" letter-spacing="-0.03em">H</tspan><tspan x="69.97" y="0" letter-spacing="-0.02em">is</tspan><tspan x="111.64" y="0">t</tspan><tspan x="133.93" y="0" letter-spacing="-0.04em">o</tspan><tspan x="166.77" y="0" letter-spacing="0.04em">r</tspan><tspan x="194.99" y="0">y</tspan><tspan x="227.35" y="0" letter-spacing="-0.08em"> </tspan><tspan x="238.39" y="0" letter-spacing="-0.02em">o</tspan><tspan x="272.62" y="0" letter-spacing="0.04em">f </tspan><tspan x="316.15" y="0" letter-spacing="-0.04em">S</tspan><tspan x="348.31" y="0">c</tspan><tspan x="377.01" y="0" letter-spacing="-0.04em">i</tspan><tspan x="393.98" y="0">e</tspan><tspan x="422.96" y="0" letter-spacing="-0.04em">n</tspan><tspan x="458.15" y="0">ce</tspan><tspan x="515.83" y="0" letter-spacing="-0.02em"> </tspan><tspan x="531.01" y="0" letter-spacing="-0.03em">S</tspan><tspan x="564.13" y="0" letter-spacing="-0.04em">o</tspan><tspan x="596.98" y="0">c</tspan><tspan x="625.68" y="0" letter-spacing="-0.04em">i</tspan><tspan x="642.65" y="0">e</tspan><tspan x="671.63" y="0" letter-spacing="0.04em">t</tspan><tspan x="696.68" y="0">y </tspan></text></svg>